# xmcd
#
# Track frame offsets:
#	150
#	11117
#	22959
#	35199
#	45947
#	57197
#	67422
#	77864
#	89947
#	102000
#	112094
#	123697
#
# Disc length: 1800 seconds
#
# Revision: 1
# Processed by: cddbd v1.4PL0 Copyright (c) Steve Scherf et al.
# Submitted via: audiograbber 1.80
#
DISCID=ac07060c
DTITLE=don reno and red smiley - god old country ballds
DYEAR=1900
DGENRE=
TTITLE0=let's live for tonight
TTITLE1=cruel love
TTITLE2=maybe you will change your mind
TTITLE3=trail of sorrow
TTITLE4=love call waltz
TTITLE5=barefoot nellie
TTITLE6=no longer a sweetheart of mine
TTITLE7=i know you're married but i love joustill
TTITLE8=drifting with the tide
TTITLE9=i'm the biggest liar in town
TTITLE10=all i have is just a mory
TTITLE11=country boy rock'n'roll
EXTD=
EXTT0=
EXTT1=
EXTT2=
EXTT3=
EXTT4=
EXTT5=
EXTT6=
EXTT7=
EXTT8=
EXTT9=
EXTT10=
EXTT11=
PLAYORDER=
